<svg xmlns="http://www.w3.org/2000/svg" xmlns:xlink="http://www.w3.org/1999/xlink" id="PARIAH" x="0" y="0" enable-background="new 0 0 612 792" version="1.1" viewBox="0 0 612 792" xml:space="preserve"><metadata><?xpacket begin="﻿" id="W5M0MpCehiHzreSzNTczkc9d"?><x:xmpmeta xmlns:x="adobe:ns:meta/" x:xmptk="Adobe XMP Core 5.6-c067 79.157747, 2015/03/30-23:40:42"><rdf:RDF xmlns:rdf="http://www.w3.org/1999/02/22-rdf-syntax-ns#"><rdf:Description xmlns:dc="http://purl.org/dc/elements/1.1/" xmlns:illustrator="http://ns.adobe.com/illustrator/1.0/" xmlns:pdf="http://ns.adobe.com/pdf/1.3/" xmlns:stDim="http://ns.adobe.com/xap/1.0/sType/Dimensions#" xmlns:stEvt="http://ns.adobe.com/xap/1.0/sType/ResourceEvent#" xmlns:stRef="http://ns.adobe.com/xap/1.0/sType/ResourceRef#" xmlns:xmp="http://ns.adobe.com/xap/1.0/" xmlns:xmpG="http://ns.adobe.com/xap/1.0/g/" xmlns:xmpGImg="http://ns.adobe.com/xap/1.0/g/img/" xmlns:xmpMM="http://ns.adobe.com/xap/1.0/mm/" xmlns:xmpTPg="http://ns.adobe.com/xap/1.0/t/pg/"><dc:format>image/svg+xml</dc:format><dc:title><rdf:Alt><rdf:li xml:lang="x-default">Print</rdf:li></rdf:Alt></dc:title><xmp:MetadataDate>2024-07-15T03:25:32-04:00</xmp:MetadataDate><xmp:ModifyDate>2024-07-15T03:25:32-04:00</xmp:ModifyDate><xmp:CreateDate>2024-07-15T03:25:32-04:00</xmp:CreateDate><xmp:CreatorTool>Adobe Illustrator CC 2015 (Windows)</xmp:CreatorTool><xmp:Thumbnails><rdf:Alt><rdf:li rdf:parseType="Resource"><xmpGImg:width>256</xmpGImg:width><xmpGImg:height>52</xmpGImg:height><xmpGImg:format>JPEG</xmpGImg:format><xmpGImg:image>/9j/4AAQSkZJRgABAgEASABIAAD/7QAsUGhvdG9zaG9wIDMuMAA4QklNA+0AAAAAABAASAAAAAEA AQBIAAAAAQAB/+4ADkFkb2JlAGTAAAAAAf/bAIQABgQEBAUEBgUFBgkGBQYJCwgGBggLDAoKCwoK DBAMDAwMDAwQDA4PEA8ODBMTFBQTExwbGxscHx8fHx8fHx8fHwEHBwcNDA0YEBAYGhURFRofHx8f Hx8fHx8fHx8fHx8fHx8fHx8fHx8fHx8fHx8fHx8fHx8fHx8fHx8fHx8fHx8f/8AAEQgANAEAAwER AAIRAQMRAf/EAaIAAAAHAQEBAQEAAAAAAAAAAAQFAwIGAQAHCAkKCwEAAgIDAQEBAQEAAAAAAAAA AQACAwQFBgcICQoLEAACAQMDAgQCBgcDBAIGAnMBAgMRBAAFIRIxQVEGE2EicYEUMpGhBxWxQiPB UtHhMxZi8CRygvElQzRTkqKyY3PCNUQnk6OzNhdUZHTD0uIIJoMJChgZhJRFRqS0VtNVKBry4/PE 1OT0ZXWFlaW1xdXl9WZ2hpamtsbW5vY3R1dnd4eXp7fH1+f3OEhYaHiImKi4yNjo+Ck5SVlpeYmZ qbnJ2en5KjpKWmp6ipqqusra6voRAAICAQIDBQUEBQYECAMDbQEAAhEDBCESMUEFURNhIgZxgZEy obHwFMHR4SNCFVJicvEzJDRDghaSUyWiY7LCB3PSNeJEgxdUkwgJChgZJjZFGidkdFU38qOzwygp 0+PzhJSktMTU5PRldYWVpbXF1eX1RlZmdoaWprbG1ub2R1dnd4eXp7fH1+f3OEhYaHiImKi4yNjo +DlJWWl5iZmpucnZ6fkqOkpaanqKmqq6ytrq+v/aAAwDAQACEQMRAD8A9U4q7FXYq7FXYq7FXYq7 FXYq7FXYq7FXYq7FXYq7FXYq7FXYq7FXYq7FXYq7FXYq7FXYq7FXYq7FXYq7FXYq7FXYq7FXYq7F XYq7FXYq7FXYq7FXYq7FXYq7FXYq7FXYq7FXYq7FXYq7FXYq7FXYq7FXYq7FXYq7FXYq7FXYq7FX Yq7FXYq7FXYq7FXYq7FXYq7FXYq7FXYq7FXYq7FXYq7FXYq7FXYq7FXYq7FXYq7FXYq7FXYq7FXY q7FXYq7FXYq7FXYq7FXYq7FXYq7FXYq7FXYq7FXYq7FXYq7FXYq7FXYq7FXYq7FXYq7FXYq7FXYq 7FXYq7FXYq7FXYq7FXYq7FXYq7FXYq7FXYq7FXYq7FXYq7FXYq7FXYq7FXYq7FXYq7FXYq7FXYq7 FXYq7FXYq7FXYq7FXYq7FXYq7FXYq7FXYq7FXYq7FXYq7FXYq7FXYq7FXYq7FXYq7FXYq7FXYq7F XYq7FXYq7FXYq7FXYq7FXYq7FXYq7FXYq7FXYq7FXYq7FXYq7FXYq7FXYq7FXYq7FXYq7FXYq7FX Yq7FXYq7FX//2Q==</xmpGImg:image></rdf:li></rdf:Alt></xmp:Thumbnails><xmpMM:InstanceID>xmp.iid:f3eb34fd-9818-384c-b173-0d6aedafb7c5</xmpMM:InstanceID><xmpMM:DocumentID>xmp.did:f3eb34fd-9818-384c-b173-0d6aedafb7c5</xmpMM:DocumentID><xmpMM:OriginalDocumentID>uuid:5D20892493BFDB11914A8590D31508C8</xmpMM:OriginalDocumentID><xmpMM:RenditionClass>proof:pdf</xmpMM:RenditionClass><xmpMM:DerivedFrom rdf:parseType="Resource"><stRef:instanceID>uuid:d1c078a0-2746-42b2-b0d1-25aedff8fb1e</stRef:instanceID><stRef:documentID>xmp.did:1b6690ed-28a8-c141-9479-b6a9cf6be651</stRef:documentID><stRef:originalDocumentID>uuid:5D20892493BFDB11914A8590D31508C8</stRef:originalDocumentID><stRef:renditionClass>proof:pdf</stRef:renditionClass></xmpMM:DerivedFrom><xmpMM:History><rdf:Seq><rdf:li rdf:parseType="Resource"><stEvt:action>saved</stEvt:action><stEvt:instanceID>xmp.iid:f3eb34fd-9818-384c-b173-0d6aedafb7c5</stEvt:instanceID><stEvt:when>2024-07-15T03:25:32-04:00</stEvt:when><stEvt:softwareAgent>Adobe Illustrator CC 2015 (Windows)</stEvt:softwareAgent><stEvt:changed>/</stEvt:changed></rdf:li></rdf:Seq></xmpMM:History><illustrator:StartupProfile>Print</illustrator:StartupProfile><xmpTPg:HasVisibleOverprint>False</xmpTPg:HasVisibleOverprint><xmpTPg:HasVisibleTransparency>False</xmpTPg:HasVisibleTransparency><xmpTPg:NPages>1</xmpTPg:NPages><xmpTPg:MaxPageSize rdf:parseType="Resource"><stDim:w>612.000000</stDim:w><stDim:h>792.000000</stDim:h><stDim:unit>Points</stDim:unit></xmpTPg:MaxPageSize><xmpTPg:SwatchGroups><rdf:Seq><rdf:li rdf:parseType="Resource"><xmpG:groupName>Default Swatch Group</xmpG:groupName><xmpG:groupType>0</xmpG:groupType><xmpG:Colorants><rdf:Seq><rdf:li rdf:parseType="Resource"><xmpG:swatchName>White</xmpG:swatchName><xmpG:mode>CMYK</xmpG:mode><xmpG:type>PROCESS</xmpG:type><xmpG:cyan>0.000000</xmpG:cyan><xmpG:magenta>0.000000</xmpG:magenta><xmpG:yellow>0.000000</xmpG:yellow><xmpG:black>0.000000</xmpG:black></rdf:li><rdf:li rdf:parseType="Resource"><xmpG:swatchName>Black</xmpG:swatchName><xmpG:mode>CMYK</xmpG:mode><xmpG:type>PROCESS</xmpG:type><xmpG:cyan>0.000000</xmpG:cyan><xmpG:magenta>0.000000</xmpG:magenta><xmpG:yellow>0.000000</xmpG:yellow><xmpG:black>100.000000</xmpG:black></rdf:li><rdf:li rdf:parseType="Resource"><xmpG:swatchName>CMYK Red</xmpG:swatchName><xmpG:mode>CMYK</xmpG:mode><xmpG:type>PROCESS</xmpG:type><xmpG:cyan>0.000000</xmpG:cyan><xmpG:magenta>100.000000</xmpG:magenta><xmpG:yellow>100.000000</xmpG:yellow><xmpG:black>0.000000</xmpG:black></rdf:li><rdf:li rdf:parseType="Resource"><xmpG:swatchName>CMYK Yellow</xmpG:swatchName><xmpG:mode>CMYK</xmpG:mode><xmpG:type>PROCESS</xmpG:type><xmpG:cyan>0.000000</xmpG:cyan><xmpG:magenta>0.000000</xmpG:magenta><xmpG:yellow>100.000000</xmpG:yellow><xmpG:black>0.000000</xmpG:black></rdf:li><rdf:li rdf:parseType="Resource"><xmpG:swatchName>CMYK Green</xmpG:swatchName><xmpG:mode>CMYK</xmpG:mode><xmpG:type>PROCESS</xmpG:type><xmpG:cyan>100.000000</xmpG:cyan><xmpG:magenta>0.000000</xmpG:magenta><xmpG:yellow>100.000000</xmpG:yellow><xmpG:black>0.000000</xmpG:black></rdf:li><rdf:li rdf:parseType="Resource"><xmpG:swatchName>CMYK Cyan</xmpG:swatchName><xmpG:mode>CMYK</xmpG:mode><xmpG:type>PROCESS</xmpG:type><xmpG:cyan>100.000000</xmpG:cyan><xmpG:magenta>0.000000</xmpG:magenta><xmpG:yellow>0.000000</xmpG:yellow><xmpG:black>0.000000</xmpG:black></rdf:li><rdf:li rdf:parseType="Resource"><xmpG:swatchName>CMYK Blue</xmpG:swatchName><xmpG:mode>CMYK</xmpG:mode><xmpG:type>PROCESS</xmpG:type><xmpG:cyan>100.000000</xmpG:cyan><xmpG:magenta>100.000000</xmpG:magenta><xmpG:yellow>0.000000</xmpG:yellow><xmpG:black>0.000000</xmpG:black></rdf:li><rdf:li rdf:parseType="Resource"><xmpG:swatchName>CMYK Magenta</xmpG:swatchName><xmpG:mode>CMYK</xmpG:mode><xmpG:type>PROCESS</xmpG:type><xmpG:cyan>0.000000</xmpG:cyan><xmpG:magenta>100.000000</xmpG:magenta><xmpG:yellow>0.000000</xmpG:yellow><xmpG:black>0.000000</xmpG:black></rdf:li><rdf:li rdf:parseType="Resource"><xmpG:swatchName>C=15 M=100 Y=90 K=10</xmpG:swatchName><xmpG:mode>CMYK</xmpG:mode><xmpG:type>PROCESS</xmpG:type><xmpG:cyan>15.000000</xmpG:cyan><xmpG:magenta>100.000000</xmpG:magenta><xmpG:yellow>90.000000</xmpG:yellow><xmpG:black>10.000000</xmpG:black></rdf:li><rdf:li rdf:parseType="Resource"><xmpG:swatchName>C=0 M=90 Y=85 K=0</xmpG:swatchName><xmpG:mode>CMYK</xmpG:mode><xmpG:type>PROCESS</xmpG:type><xmpG:cyan>0.000000</xmpG:cyan><xmpG:magenta>90.000000</xmpG:magenta><xmpG:yellow>85.000000</xmpG:yellow><xmpG:black>0.000000</xmpG:black></rdf:li><rdf:li rdf:parseType="Resource"><xmpG:swatchName>C=0 M=80 Y=95 K=0</xmpG:swatchName><xmpG:mode>CMYK</xmpG:mode><xmpG:type>PROCESS</xmpG:type><xmpG:cyan>0.000000</xmpG:cyan><xmpG:magenta>80.000000</xmpG:magenta><xmpG:yellow>95.000000</xmpG:yellow><xmpG:black>0.000000</xmpG:black></rdf:li><rdf:li rdf:parseType="Resource"><xmpG:swatchName>C=0 M=50 Y=100 K=0</xmpG:swatchName><xmpG:mode>CMYK</xmpG:mode><xmpG:type>PROCESS</xmpG:type><xmpG:cyan>0.000000</xmpG:cyan><xmpG:magenta>50.000000</xmpG:magenta><xmpG:yellow>100.000000</xmpG:yellow><xmpG:black>0.000000</xmpG:black></rdf:li><rdf:li rdf:parseType="Resource"><xmpG:swatchName>C=0 M=35 Y=85 K=0</xmpG:swatchName><xmpG:mode>CMYK</xmpG:mode><xmpG:type>PROCESS</xmpG:type><xmpG:cyan>0.000000</xmpG:cyan><xmpG:magenta>35.000000</xmpG:magenta><xmpG:yellow>85.000000</xmpG:yellow><xmpG:black>0.000000</xmpG:black></rdf:li><rdf:li rdf:parseType="Resource"><xmpG:swatchName>C=5 M=0 Y=90 K=0</xmpG:swatchName><xmpG:mode>CMYK</xmpG:mode><xmpG:type>PROCESS</xmpG:type><xmpG:cyan>5.000000</xmpG:cyan><xmpG:magenta>0.000000</xmpG:magenta><xmpG:yellow>90.000000</xmpG:yellow><xmpG:black>0.000000</xmpG:black></rdf:li><rdf:li rdf:parseType="Resource"><xmpG:swatchName>C=20 M=0 Y=100 K=0</xmpG:swatchName><xmpG:mode>CMYK</xmpG:mode><xmpG:type>PROCESS</xmpG:type><xmpG:cyan>20.000000</xmpG:cyan><xmpG:magenta>0.000000</xmpG:magenta><xmpG:yellow>100.000000</xmpG:yellow><xmpG:black>0.000000</xmpG:black></rdf:li><rdf:li rdf:parseType="Resource"><xmpG:swatchName>C=50 M=0 Y=100 K=0</xmpG:swatchName><xmpG:mode>CMYK</xmpG:mode><xmpG:type>PROCESS</xmpG:type><xmpG:cyan>50.000000</xmpG:cyan><xmpG:magenta>0.000000</xmpG:magenta><xmpG:yellow>100.000000</xmpG:yellow><xmpG:black>0.000000</xmpG:black></rdf:li><rdf:li rdf:parseType="Resource"><xmpG:swatchName>C=75 M=0 Y=100 K=0</xmpG:swatchName><xmpG:mode>CMYK</xmpG:mode><xmpG:type>PROCESS</xmpG:type><xmpG:cyan>75.000000</xmpG:cyan><xmpG:magenta>0.000000</xmpG:magenta><xmpG:yellow>100.000000</xmpG:yellow><xmpG:black>0.000000</xmpG:black></rdf:li><rdf:li rdf:parseType="Resource"><xmpG:swatchName>C=85 M=10 Y=100 K=10</xmpG:swatchName><xmpG:mode>CMYK</xmpG:mode><xmpG:type>PROCESS</xmpG:type><xmpG:cyan>85.000000</xmpG:cyan><xmpG:magenta>10.000000</xmpG:magenta><xmpG:yellow>100.000000</xmpG:yellow><xmpG:black>10.000000</xmpG:black></rdf:li><rdf:li rdf:parseType="Resource"><xmpG:swatchName>C=90 M=30 Y=95 K=30</xmpG:swatchName><xmpG:mode>CMYK</xmpG:mode><xmpG:type>PROCESS</xmpG:type><xmpG:cyan>90.000000</xmpG:cyan><xmpG:magenta>30.000000</xmpG:magenta><xmpG:yellow>95.000000</xmpG:yellow><xmpG:black>30.000000</xmpG:black></rdf:li><rdf:li rdf:parseType="Resource"><xmpG:swatchName>C=75 M=0 Y=75 K=0</xmpG:swatchName><xmpG:mode>CMYK</xmpG:mode><xmpG:type>PROCESS</xmpG:type><xmpG:cyan>75.000000</xmpG:cyan><xmpG:magenta>0.000000</xmpG:magenta><xmpG:yellow>75.000000</xmpG:yellow><xmpG:black>0.000000</xmpG:black></rdf:li><rdf:li rdf:parseType="Resource"><xmpG:swatchName>C=80 M=10 Y=45 K=0</xmpG:swatchName><xmpG:mode>CMYK</xmpG:mode><xmpG:type>PROCESS</xmpG:type><xmpG:cyan>80.000000</xmpG:cyan><xmpG:magenta>10.000000</xmpG:magenta><xmpG:yellow>45.000000</xmpG:yellow><xmpG:black>0.000000</xmpG:black></rdf:li><rdf:li rdf:parseType="Resource"><xmpG:swatchName>C=70 M=15 Y=0 K=0</xmpG:swatchName><xmpG:mode>CMYK</xmpG:mode><xmpG:type>PROCESS</xmpG:type><xmpG:cyan>70.000000</xmpG:cyan><xmpG:magenta>15.000000</xmpG:magenta><xmpG:yellow>0.000000</xmpG:yellow><xmpG:black>0.000000</xmpG:black></rdf:li><rdf:li rdf:parseType="Resource"><xmpG:swatchName>C=85 M=50 Y=0 K=0</xmpG:swatchName><xmpG:mode>CMYK</xmpG:mode><xmpG:type>PROCESS</xmpG:type><xmpG:cyan>85.000000</xmpG:cyan><xmpG:magenta>50.000000</xmpG:magenta><xmpG:yellow>0.000000</xmpG:yellow><xmpG:black>0.000000</xmpG:black></rdf:li><rdf:li rdf:parseType="Resource"><xmpG:swatchName>C=100 M=95 Y=5 K=0</xmpG:swatchName><xmpG:mode>CMYK</xmpG:mode><xmpG:type>PROCESS</xmpG:type><xmpG:cyan>100.000000</xmpG:cyan><xmpG:magenta>95.000000</xmpG:magenta><xmpG:yellow>5.000000</xmpG:yellow><xmpG:black>0.000000</xmpG:black></rdf:li><rdf:li rdf:parseType="Resource"><xmpG:swatchName>C=100 M=100 Y=25 K=25</xmpG:swatchName><xmpG:mode>CMYK</xmpG:mode><xmpG:type>PROCESS</xmpG:type><xmpG:cyan>100.000000</xmpG:cyan><xmpG:magenta>100.000000</xmpG:magenta><xmpG:yellow>25.000000</xmpG:yellow><xmpG:black>25.000000</xmpG:black></rdf:li><rdf:li rdf:parseType="Resource"><xmpG:swatchName>C=75 M=100 Y=0 K=0</xmpG:swatchName><xmpG:mode>CMYK</xmpG:mode><xmpG:type>PROCESS</xmpG:type><xmpG:cyan>75.000000</xmpG:cyan><xmpG:magenta>100.000000</xmpG:magenta><xmpG:yellow>0.000000</xmpG:yellow><xmpG:black>0.000000</xmpG:black></rdf:li><rdf:li rdf:parseType="Resource"><xmpG:swatchName>C=50 M=100 Y=0 K=0</xmpG:swatchName><xmpG:mode>CMYK</xmpG:mode><xmpG:type>PROCESS</xmpG:type><xmpG:cyan>50.000000</xmpG:cyan><xmpG:magenta>100.000000</xmpG:magenta><xmpG:yellow>0.000000</xmpG:yellow><xmpG:black>0.000000</xmpG:black></rdf:li><rdf:li rdf:parseType="Resource"><xmpG:swatchName>C=35 M=100 Y=35 K=10</xmpG:swatchName><xmpG:mode>CMYK</xmpG:mode><xmpG:type>PROCESS</xmpG:type><xmpG:cyan>35.000000</xmpG:cyan><xmpG:magenta>100.000000</xmpG:magenta><xmpG:yellow>35.000000</xmpG:yellow><xmpG:black>10.000000</xmpG:black></rdf:li><rdf:li rdf:parseType="Resource"><xmpG:swatchName>C=10 M=100 Y=50 K=0</xmpG:swatchName><xmpG:mode>CMYK</xmpG:mode><xmpG:type>PROCESS</xmpG:type><xmpG:cyan>10.000000</xmpG:cyan><xmpG:magenta>100.000000</xmpG:magenta><xmpG:yellow>50.000000</xmpG:yellow><xmpG:black>0.000000</xmpG:black></rdf:li><rdf:li rdf:parseType="Resource"><xmpG:swatchName>C=0 M=95 Y=20 K=0</xmpG:swatchName><xmpG:mode>CMYK</xmpG:mode><xmpG:type>PROCESS</xmpG:type><xmpG:cyan>0.000000</xmpG:cyan><xmpG:magenta>95.000000</xmpG:magenta><xmpG:yellow>20.000000</xmpG:yellow><xmpG:black>0.000000</xmpG:black></rdf:li><rdf:li rdf:parseType="Resource"><xmpG:swatchName>C=25 M=25 Y=40 K=0</xmpG:swatchName><xmpG:mode>CMYK</xmpG:mode><xmpG:type>PROCESS</xmpG:type><xmpG:cyan>25.000000</xmpG:cyan><xmpG:magenta>25.000000</xmpG:magenta><xmpG:yellow>40.000000</xmpG:yellow><xmpG:black>0.000000</xmpG:black></rdf:li><rdf:li rdf:parseType="Resource"><xmpG:swatchName>C=40 M=45 Y=50 K=5</xmpG:swatchName><xmpG:mode>CMYK</xmpG:mode><xmpG:type>PROCESS</xmpG:type><xmpG:cyan>40.000000</xmpG:cyan><xmpG:magenta>45.000000</xmpG:magenta><xmpG:yellow>50.000000</xmpG:yellow><xmpG:black>5.000000</xmpG:black></rdf:li><rdf:li rdf:parseType="Resource"><xmpG:swatchName>C=50 M=50 Y=60 K=25</xmpG:swatchName><xmpG:mode>CMYK</xmpG:mode><xmpG:type>PROCESS</xmpG:type><xmpG:cyan>50.000000</xmpG:cyan><xmpG:magenta>50.000000</xmpG:magenta><xmpG:yellow>60.000000</xmpG:yellow><xmpG:black>25.000000</xmpG:black></rdf:li><rdf:li rdf:parseType="Resource"><xmpG:swatchName>C=55 M=60 Y=65 K=40</xmpG:swatchName><xmpG:mode>CMYK</xmpG:mode><xmpG:type>PROCESS</xmpG:type><xmpG:cyan>55.000000</xmpG:cyan><xmpG:magenta>60.000000</xmpG:magenta><xmpG:yellow>65.000000</xmpG:yellow><xmpG:black>40.000000</xmpG:black></rdf:li><rdf:li rdf:parseType="Resource"><xmpG:swatchName>C=25 M=40 Y=65 K=0</xmpG:swatchName><xmpG:mode>CMYK</xmpG:mode><xmpG:type>PROCESS</xmpG:type><xmpG:cyan>25.000000</xmpG:cyan><xmpG:magenta>40.000000</xmpG:magenta><xmpG:yellow>65.000000</xmpG:yellow><xmpG:black>0.000000</xmpG:black></rdf:li><rdf:li rdf:parseType="Resource"><xmpG:swatchName>C=30 M=50 Y=75 K=10</xmpG:swatchName><xmpG:mode>CMYK</xmpG:mode><xmpG:type>PROCESS</xmpG:type><xmpG:cyan>30.000000</xmpG:cyan><xmpG:magenta>50.000000</xmpG:magenta><xmpG:yellow>75.000000</xmpG:yellow><xmpG:black>10.000000</xmpG:black></rdf:li><rdf:li rdf:parseType="Resource"><xmpG:swatchName>C=35 M=60 Y=80 K=25</xmpG:swatchName><xmpG:mode>CMYK</xmpG:mode><xmpG:type>PROCESS</xmpG:type><xmpG:cyan>35.000000</xmpG:cyan><xmpG:magenta>60.000000</xmpG:magenta><xmpG:yellow>80.000000</xmpG:yellow><xmpG:black>25.000000</xmpG:black></rdf:li><rdf:li rdf:parseType="Resource"><xmpG:swatchName>C=40 M=65 Y=90 K=35</xmpG:swatchName><xmpG:mode>CMYK</xmpG:mode><xmpG:type>PROCESS</xmpG:type><xmpG:cyan>40.000000</xmpG:cyan><xmpG:magenta>65.000000</xmpG:magenta><xmpG:yellow>90.000000</xmpG:yellow><xmpG:black>35.000000</xmpG:black></rdf:li><rdf:li rdf:parseType="Resource"><xmpG:swatchName>C=40 M=70 Y=100 K=50</xmpG:swatchName><xmpG:mode>CMYK</xmpG:mode><xmpG:type>PROCESS</xmpG:type><xmpG:cyan>40.000000</xmpG:cyan><xmpG:magenta>70.000000</xmpG:magenta><xmpG:yellow>100.000000</xmpG:yellow><xmpG:black>50.000000</xmpG:black></rdf:li><rdf:li rdf:parseType="Resource"><xmpG:swatchName>C=50 M=70 Y=80 K=70</xmpG:swatchName><xmpG:mode>CMYK</xmpG:mode><xmpG:type>PROCESS</xmpG:type><xmpG:cyan>50.000000</xmpG:cyan><xmpG:magenta>70.000000</xmpG:magenta><xmpG:yellow>80.000000</xmpG:yellow><xmpG:black>70.000000</xmpG:black></rdf:li></rdf:Seq></xmpG:Colorants></rdf:li><rdf:li rdf:parseType="Resource"><xmpG:groupName>Grays</xmpG:groupName><xmpG:groupType>1</xmpG:groupType><xmpG:Colorants><rdf:Seq><rdf:li rdf:parseType="Resource"><xmpG:swatchName>C=0 M=0 Y=0 K=100</xmpG:swatchName><xmpG:mode>CMYK</xmpG:mode><xmpG:type>PROCESS</xmpG:type><xmpG:cyan>0.000000</xmpG:cyan><xmpG:magenta>0.000000</xmpG:magenta><xmpG:yellow>0.000000</xmpG:yellow><xmpG:black>100.000000</xmpG:black></rdf:li><rdf:li rdf:parseType="Resource"><xmpG:swatchName>C=0 M=0 Y=0 K=90</xmpG:swatchName><xmpG:mode>CMYK</xmpG:mode><xmpG:type>PROCESS</xmpG:type><xmpG:cyan>0.000000</xmpG:cyan><xmpG:magenta>0.000000</xmpG:magenta><xmpG:yellow>0.000000</xmpG:yellow><xmpG:black>89.999400</xmpG:black></rdf:li><rdf:li rdf:parseType="Resource"><xmpG:swatchName>C=0 M=0 Y=0 K=80</xmpG:swatchName><xmpG:mode>CMYK</xmpG:mode><xmpG:type>PROCESS</xmpG:type><xmpG:cyan>0.000000</xmpG:cyan><xmpG:magenta>0.000000</xmpG:magenta><xmpG:yellow>0.000000</xmpG:yellow><xmpG:black>79.998800</xmpG:black></rdf:li><rdf:li rdf:parseType="Resource"><xmpG:swatchName>C=0 M=0 Y=0 K=70</xmpG:swatchName><xmpG:mode>CMYK</xmpG:mode><xmpG:type>PROCESS</xmpG:type><xmpG:cyan>0.000000</xmpG:cyan><xmpG:magenta>0.000000</xmpG:magenta><xmpG:yellow>0.000000</xmpG:yellow><xmpG:black>69.999700</xmpG:black></rdf:li><rdf:li rdf:parseType="Resource"><xmpG:swatchName>C=0 M=0 Y=0 K=60</xmpG:swatchName><xmpG:mode>CMYK</xmpG:mode><xmpG:type>PROCESS</xmpG:type><xmpG:cyan>0.000000</xmpG:cyan><xmpG:magenta>0.000000</xmpG:magenta><xmpG:yellow>0.000000</xmpG:yellow><xmpG:black>59.999100</xmpG:black></rdf:li><rdf:li rdf:parseType="Resource"><xmpG:swatchName>C=0 M=0 Y=0 K=50</xmpG:swatchName><xmpG:mode>CMYK</xmpG:mode><xmpG:type>PROCESS</xmpG:type><xmpG:cyan>0.000000</xmpG:cyan><xmpG:magenta>0.000000</xmpG:magenta><xmpG:yellow>0.000000</xmpG:yellow><xmpG:black>50.000000</xmpG:black></rdf:li><rdf:li rdf:parseType="Resource"><xmpG:swatchName>C=0 M=0 Y=0 K=40</xmpG:swatchName><xmpG:mode>CMYK</xmpG:mode><xmpG:type>PROCESS</xmpG:type><xmpG:cyan>0.000000</xmpG:cyan><xmpG:magenta>0.000000</xmpG:magenta><xmpG:yellow>0.000000</xmpG:yellow><xmpG:black>39.999400</xmpG:black></rdf:li><rdf:li rdf:parseType="Resource"><xmpG:swatchName>C=0 M=0 Y=0 K=30</xmpG:swatchName><xmpG:mode>CMYK</xmpG:mode><xmpG:type>PROCESS</xmpG:type><xmpG:cyan>0.000000</xmpG:cyan><xmpG:magenta>0.000000</xmpG:magenta><xmpG:yellow>0.000000</xmpG:yellow><xmpG:black>29.998800</xmpG:black></rdf:li><rdf:li rdf:parseType="Resource"><xmpG:swatchName>C=0 M=0 Y=0 K=20</xmpG:swatchName><xmpG:mode>CMYK</xmpG:mode><xmpG:type>PROCESS</xmpG:type><xmpG:cyan>0.000000</xmpG:cyan><xmpG:magenta>0.000000</xmpG:magenta><xmpG:yellow>0.000000</xmpG:yellow><xmpG:black>19.999700</xmpG:black></rdf:li><rdf:li rdf:parseType="Resource"><xmpG:swatchName>C=0 M=0 Y=0 K=10</xmpG:swatchName><xmpG:mode>CMYK</xmpG:mode><xmpG:type>PROCESS</xmpG:type><xmpG:cyan>0.000000</xmpG:cyan><xmpG:magenta>0.000000</xmpG:magenta><xmpG:yellow>0.000000</xmpG:yellow><xmpG:black>9.999100</xmpG:black></rdf:li><rdf:li rdf:parseType="Resource"><xmpG:swatchName>C=0 M=0 Y=0 K=5</xmpG:swatchName><xmpG:mode>CMYK</xmpG:mode><xmpG:type>PROCESS</xmpG:type><xmpG:cyan>0.000000</xmpG:cyan><xmpG:magenta>0.000000</xmpG:magenta><xmpG:yellow>0.000000</xmpG:yellow><xmpG:black>4.998800</xmpG:black></rdf:li></rdf:Seq></xmpG:Colorants></rdf:li><rdf:li rdf:parseType="Resource"><xmpG:groupName>Brights</xmpG:groupName><xmpG:groupType>1</xmpG:groupType><xmpG:Colorants><rdf:Seq><rdf:li rdf:parseType="Resource"><xmpG:swatchName>C=0 M=100 Y=100 K=0</xmpG:swatchName><xmpG:mode>CMYK</xmpG:mode><xmpG:type>PROCESS</xmpG:type><xmpG:cyan>0.000000</xmpG:cyan><xmpG:magenta>100.000000</xmpG:magenta><xmpG:yellow>100.000000</xmpG:yellow><xmpG:black>0.000000</xmpG:black></rdf:li><rdf:li rdf:parseType="Resource"><xmpG:swatchName>C=0 M=75 Y=100 K=0</xmpG:swatchName><xmpG:mode>CMYK</xmpG:mode><xmpG:type>PROCESS</xmpG:type><xmpG:cyan>0.000000</xmpG:cyan><xmpG:magenta>75.000000</xmpG:magenta><xmpG:yellow>100.000000</xmpG:yellow><xmpG:black>0.000000</xmpG:black></rdf:li><rdf:li rdf:parseType="Resource"><xmpG:swatchName>C=0 M=10 Y=95 K=0</xmpG:swatchName><xmpG:mode>CMYK</xmpG:mode><xmpG:type>PROCESS</xmpG:type><xmpG:cyan>0.000000</xmpG:cyan><xmpG:magenta>10.000000</xmpG:magenta><xmpG:yellow>95.000000</xmpG:yellow><xmpG:black>0.000000</xmpG:black></rdf:li><rdf:li rdf:parseType="Resource"><xmpG:swatchName>C=85 M=10 Y=100 K=0</xmpG:swatchName><xmpG:mode>CMYK</xmpG:mode><xmpG:type>PROCESS</xmpG:type><xmpG:cyan>85.000000</xmpG:cyan><xmpG:magenta>10.000000</xmpG:magenta><xmpG:yellow>100.000000</xmpG:yellow><xmpG:black>0.000000</xmpG:black></rdf:li><rdf:li rdf:parseType="Resource"><xmpG:swatchName>C=100 M=90 Y=0 K=0</xmpG:swatchName><xmpG:mode>CMYK</xmpG:mode><xmpG:type>PROCESS</xmpG:type><xmpG:cyan>100.000000</xmpG:cyan><xmpG:magenta>90.000000</xmpG:magenta><xmpG:yellow>0.000000</xmpG:yellow><xmpG:black>0.000000</xmpG:black></rdf:li><rdf:li rdf:parseType="Resource"><xmpG:swatchName>C=60 M=90 Y=0 K=0</xmpG:swatchName><xmpG:mode>CMYK</xmpG:mode><xmpG:type>PROCESS</xmpG:type><xmpG:cyan>60.000000</xmpG:cyan><xmpG:magenta>90.000000</xmpG:magenta><xmpG:yellow>0.003100</xmpG:yellow><xmpG:black>0.003100</xmpG:black></rdf:li></rdf:Seq></xmpG:Colorants></rdf:li></rdf:Seq></xmpTPg:SwatchGroups><pdf:Producer>Adobe PDF library 10.01</pdf:Producer></rdf:Description></rdf:RDF></x:xmpmeta><?xpacket end="w"?></metadata><path id="XMLID_2_" fill="#FFF" d="M528.1,420.3c0,0.2,0.1,0.4,0.4,0.4c-0.1,0.2-0.3,0.5-0.4,0.7c-0.2,0.3-0.4,0.6-0.1,0.9	c0.2,0.2,0.3,0.3,0.3,0.6c-0.1,0.7-0.1,1.4-0.2,2.2c0,0.6-0.1,1.3,0,1.8c0.1,0.6,0.1,1.1,0,1.7c0,0.6-0.2,1.3-0.1,1.8	c0.1,0.5,0.2,0.8,0.2,1.3c0,0.7-0.1,1.3,0,2c0,0.5,0,0.9-0.4,1.2c-0.9,0.6-2.1,0.5-3.1,0.4c-0.9-0.1-1.7-0.2-2.6,0	c0-0.9,0-1.8,0-2.7c0-6.3,0-12.5,0-18.8c0-0.9,0-1.8,0-2.7c0-6.3,0-12.5,0-18.8c-0.3,0.2-0.6,0.4-1,0.6c-0.9,0.5-1.8,0.5-2.7,0.5	c-1.7-0.1-3.4-0.1-5.1-0.1c-3.5,0-6.9,0-10.4-0.1c-6.9-0.1-13.9,0-20.8,0c-5.2,0-10.4,0.1-15.6,0c-1,0-2,0.1-3,0	c-1-0.1-1.3-0.8-1.3-1.7c0-1,0.1-2,0.1-3c0-0.6,0-1.1,0-1.7c6.3,0,12.6,0,18.9,0c9.4,0,18.8,0,28.3,0c3.5,0,7,0,10.5,0	c0.5,0,0.9,0,1.4,0c0.1,0,0.5,0.1,0.6,0c0.1-0.1,0-0.8,0-1c-0.1-1,0-2,0-3c0-2.4,0-4.8,0-7.2c0-5.1,0-10.2,0-15.3c0-2.2,0-4.4,0-6.6	c0-1.1,0-2.2,0-3.3c0-0.3-0.1-0.5,0.2-0.6c0.2-0.1,0.6,0,0.9,0c0.5,0,0.9,0,1.4,0c1,0,2,0,3,0c0.6,0,0.6,0.1,0.7,0.7	c0,0.6,0,1.2,0,1.9c0,0.7,0.4,1.3,0.3,2c-0.1,0.8-0.2,1.6-0.2,2.5c0,0.8,0,1.6,0,2.5c0,2.1,0,4.2,0,6.3c0,2.1,0,4.1,0,6.2	c0,0.8,0,1.6,0,2.4c0,1.1,0.1,2.1,0.1,3.2c0,1.1,0,2.2,0,3.4c0,0.5,0,1,0,1.6c0,0.4-0.1,0.7,0,1.1c0,0.2,0.2,0.3,0.4,0.3	c-0.1,0.2-0.3,0.5-0.4,0.7c-0.2,0.3-0.4,0.6-0.1,0.9c0.2,0.2,0.3,0.3,0.3,0.6c0,0.7-0.1,1.4-0.2,2.2c0,0.6-0.1,1.3,0,1.8	c0.1,0.6,0.1,1.1,0,1.7c0,0.6-0.2,1.2-0.1,1.8c0.1,0.4,0.2,0.7,0.2,1.1c0,0.7-0.1,1.3,0,2c0,1.2,0,2.5,0,3.7c0,1.7,0,3.5,0,5.2	c0,1.2,0,2.4,0,3.6c0,0.6,0,1.3-0.1,1.9c0,0.6,0.2,1.1,0.2,1.8c0,0.8-0.1,1.5-0.1,2.3c0,0.7,0,1.5,0,2.2c0,0.5,0,1,0,1.6	c0,0.2,0,0.3,0,0.5C528.1,419.9,528,420.1,528.1,420.3z M408.6,358.3c-4.9,12.8-4.8,12.9-3.6,9.8c0.8-2,1.5-4,2.3-6	c0.3-0.9,0.6-1.7,0.9-2.6C408.3,359.2,408.7,358.5,408.6,358.3L408.6,358.3z M443.3,432.5c-0.3-0.7-0.5-1.4-0.8-2	c-1.4-3.5-2.7-7-4.1-10.6c-3.3-8.5-6.6-16.9-9.9-25.4c-3.3-8.4-6.5-16.8-9.8-25.3c-1.6-4.2-3.2-8.4-4.9-12.6	c-0.7-1.8-1.4-3.6-2.1-5.4c-0.2-0.6-0.4-1.1-0.6-1.7c-0.1-0.4-0.3-0.5-0.7-0.5c-0.8,0-1.6,0-2.5,0c-0.7,0-1.8-0.2-2.4,0.2	c-0.3,0.2-0.4,0.6-0.6,1c-0.2,0.5-0.4,1-0.6,1.6c-0.4,1-0.8,2-1.2,3.1c-0.8,2.1-1.6,4.2-2.5,6.3c-1.7,4.3-3.3,8.5-5,12.8	c-3.3,8.5-6.7,17.1-10,25.6c-3.3,8.5-6.7,17-10,25.6c-0.6,1.6-1.3,3.2-1.9,4.8c-0.3,0.7-0.6,1.5-0.9,2.2c-0.2,0.6-0.7,1.4-0.8,2	c0,0.3,0.2,0.7,0.5,0.8c0.5,0.2,1.1,0.2,1.6,0.1c0.7,0,1.4-0.1,2.1-0.1c0.5,0,1,0,1.5,0c0.3,0,0.6,0,1,0c0.3,0.1,0.4,0.1,0.5-0.2	c0.2-0.4,0.4-0.8,0.6-1.3c0.2-0.8,0.5-1.5,0.8-2.3c0.4-1.1,0.8-2.1,1.2-3.2c4.6-12,9.2-24.1,13.7-36.1c4.3-11.3,8.6-22.7,13-34	c0.6,1.4,1.1,2.8,1.6,4.2c2.7,7,5.3,14.1,8,21.1c3.2,8.5,6.4,17,9.7,25.5c1.6,4.3,3.2,8.6,4.8,12.9c0.8,2.2,1.6,4.3,2.5,6.5	c0.4,1.1,0.8,2.2,1.3,3.3c0.2,0.7,0.5,1.3,0.7,2c0.3,0.9,0.8,1.3,1.7,1.5c1,0.2,1.9,0,2.9,0.1c0.6,0.1,1.2,0.1,1.8-0.1	c0.2-0.1,0.5-0.3,0.5-0.6c0-0.4-0.2-1-0.4-1.4C443.6,433.1,443.4,432.8,443.3,432.5z M353,430.3c0-0.2,0-0.4,0-0.6	c0-0.6,0-1.2,0-1.8c0-0.9-0.1-1.6-0.1-2.5c0-1.1,0-2.2,0-3.2c0-1.5,0-3,0-4.5c0-2,0-4,0-5.9c0-1.5,0-3,0-4.5c0-0.9,0-1.7,0.1-2.6	c0-0.4-0.1-0.8-0.1-1.2c0.1-3.5,0.2-7.1,0.1-10.6c0-1.8,0-3.6-0.1-5.5c0-0.9,0-1.8,0-2.7c0-0.6-0.3-1.9,0-2.3c0.1-0.3,0-1,0-1.4	c0-0.6,0-1.2,0-1.8c0-1.2,0-2.3,0-3.5c0-2.4-0.2-4.9,0-7.3c0-0.3,0-0.6,0.2-0.8c0.1-0.1,0.1-0.2,0.2-0.3c-0.1,0-0.2-0.1-0.3-0.2	c-0.2-0.1-0.2-0.6-0.1-0.8c0.1-0.5,0.1-1,0.1-1.5c0.1-1.3,0.1-2.5,0-3.8c0-0.7,0-1.4-0.1-2.1c0-0.3,0.1-0.7,0-1	c0-0.1-0.2-0.3-0.2-0.6c0-0.5,0-1,0-1.5c0-0.7,0-1.4,0-2.1c0-1,0-1.9,0.1-2.9c0-0.3,0.1-1.6-0.2-1.8c-0.2-0.1-0.6,0-0.7,0	c-0.3,0-0.6,0-1,0c-0.6,0-1.3,0-1.9,0c-0.5,0-1,0-1.5,0c0,0-0.5,0-0.5,0.2c0,0.4-0.1,0.7,0,1.1c0.1,1.3,0,2.5,0,3.8	c0,8.2,0,16.4,0,24.6c0,10.8,0,21.6,0,32.5c0,5.4,0,10.8,0,16.2c0,2.2-0.2,4.5,0,6.7c0,0.8,0.5,1.2,1.3,1.4c0.9,0.2,1.9,0,2.8-0.2	c0.6-0.1,1.3-0.1,2,0c0-0.4-0.1-0.7-0.1-1.1c-0.1-0.7-0.2-1.4,0-2.1c0.1-0.3,0.2-0.6,0.3-0.9c-0.2,0-0.3-0.2-0.3-0.3	C352.9,430.7,353,430.5,353,430.3z M307.2,405.7c2-0.6,4-1.5,5.9-2.5c3.8-2,7.2-4.9,9.7-8.4c2.7-3.8,4.7-8.3,5.5-12.9	c0.7-3.8-0.1-7.3-0.9-11c-0.5-2.1-1.2-4.1-2.2-6c-1.3-2.4-2.8-4.7-4.7-6.7c-4.1-4.3-9.4-6.9-15.2-8.1c-6.2-1.2-12.6-1.2-18.9-1.1	c-3.8,0-7.6,0.1-11.4,0.1c-2,0-3.9,0-5.9-0.1c-0.3,0-1.2,0.2-1.4,0.1c0,0-0.1,0.8-0.1,0.9c0,0.7,0,1.5,0,2.2c0,0.8,0,1.6,0,2.5	c0,0.2,0.2,0.8,0,1c0,0,1.3,0.1,1.3,0.1c0.9,0,1.8,0,2.8,0c1.7,0,3.4,0,5.1,0c2.5,0,4.9-0.1,7.4-0.1c2.7,0,5.4,0.2,8.1,0.1	c5.7-0.2,11.3,0.2,16.6,2.6c7.6,3.4,12.8,10.3,13.2,18.8c0.3,8.4-4.2,15.8-11.4,19.9c-2.9,1.7-6.1,2.8-9.4,3.3	c-3.5,0.6-7.2,0.5-10.8,0.4c-3.9,0-7.9-0.1-11.8-0.1c-1.5,0-2.9,0-4.4,0c0,0-0.7-0.1-0.8,0c-0.1,0.1,0,0.6,0,0.7c0,0.4,0,0.8,0,1.2	c0,0.9,0,1.8,0,2.6c0,0.4,0,0.8,0,1.2c0,0.5,0,0.6,0.5,0.8c0.7,0.4,1.4,0.9,2.1,1.3c1.4,0.9,2.8,1.8,4.2,2.6	c4.3,2.7,8.5,5.4,12.8,8.1c4,2.5,8,5.1,12.1,7.6c2.7,1.7,5.3,3.4,8,5.1c1.1,0.7,2.2,1.4,3.3,2c0.7,0.4,1.4,0.9,2.1,1.2	c1.2,0.4,2.6,0.4,3.8,0.4c1.4,0,2.9,0,4.3-0.4c0.5-0.1,1.1-0.3,1.4-0.7c-7.4-4.6-14.8-9.2-22.2-13.8c-7.4-4.6-14.7-9.1-22.1-13.7	c1.3,0,2.6,0,4,0c3.9,0.1,7.9,0.2,11.8-0.1C302.2,406.9,304.7,406.5,307.2,405.7z M200.5,393.9c-0.7,1.7-1.3,3.4-1.9,5.1	C197.9,400.7,197.9,400.7,200.5,393.9L200.5,393.9z M176.9,435.3l0.7-1.9c0.2-0.6,0.5-1.3,0.7-1.9c-0.2,0.5-0.5,1.3-0.7,1.9	C177.4,434,177.1,434.6,176.9,435.3c0.3,0,0.6,0,0.9,0c0.8,0,1.6,0.1,2.4,0.1c0.6,0,1.3,0.1,1.9,0.1c0.5,0,2.2,0.4,2.4-0.1	c0.3-0.6,0.6-1.6,0.6-2.2c0-0.5,0.5-1.3,0.7-1.8c0.4-0.9,0.7-1.8,1.1-2.8c2.5-6.5,5-13,7.4-19.5c2.5-6.5,5.1-13,7.5-19.6	c1.1-3,2.2-5.9,3.3-8.9c1.7-4.5,3.4-9,5.1-13.5c1.1-3,2.3-6,3.4-9c0.5,1.2,0.9,2.5,1.4,3.7c5.3,13.9,10.6,27.8,15.8,41.7	c3.4,8.9,6.8,17.8,9.8,26.9c0.6,1.7,1.2,3.3,1.6,5c0.3,1,0.5,1.1,1.5,1.1c0.8,0,1.7,0,2.5,0c0.9,0,1.9,0,2.8-0.1	c0.3,0,0.6,0,0.9-0.1c-0.7-1.8-1.4-3.6-2.2-5.4c-0.9-2.2-1.8-4.4-2.6-6.6c-2.2-5.8-4.5-11.6-6.7-17.4c-4-10.5-8.1-20.9-12.2-31.4	c-2.5-6.3-4.9-12.7-7.4-19c-0.6-1.6-1.3-3.3-1.9-4.9c-0.2-0.5-0.4-1-0.6-1.5c-0.1-0.2-0.2-0.5-0.3-0.7c0-0.3-0.1-0.4-0.3-0.4	c-0.6,0-1.3-0.2-1.9-0.1c-1.9,0.1-3.3,0.5-4.2,2.2c-0.5,1.1-0.8,2.3-1.3,3.4c-0.5,1.2-0.9,2.4-1.4,3.6c-4.4,11.4-8.8,22.8-13.3,34.2	c-4.5,11.6-9,23.1-13.6,34.6c-0.6,1.5-1.2,3-1.7,4.3 M158.9,374.5c0-0.4-0.4-1.7-0.5-2.3c0,0-0.1-0.4-0.1-0.4	c-0.1,0,0.5,2.3,0.5,2.4c0.1-0.7-0.3-1.6-0.5-2.3c-0.7-3.2-1.6-6-3.4-8.8c-3-4.8-7.4-8.6-12.6-10.9c-7.1-3.3-14.7-3.3-22.4-3.3	c-4.8,0-9.5,0.1-14.3,0.1c-2.1,0-4.2,0-6.3-0.1c-1-0.1-1.5-0.1-1.4,1c0.1,1.1,0.1,2.1,0.1,3.2c0,0.4-0.2,2.5,0.1,2.5	c1.1,0.1,2.3-0.1,3.4-0.1c2.1,0,4.3-0.1,6.4-0.1c3.4,0,6.9,0.2,10.3,0.1c3.4,0,6.8-0.2,10.2,0.1c2.9,0.2,5.8,0.7,8.5,1.7	c5.3,2,9.6,5.8,12.2,10.8c2.3,4.4,3.1,9.3,1.8,14.1c-1.1,4.2-3.5,8.1-6.7,11c-5,4.6-11.2,6.4-17.9,6.5c-3.3,0-6.7,0-10,0	c-3.4,0-6.8,0-10.3,0c-2.1,0-4.2,0-6.4,0c-0.3,0-1.4-0.2-1.7,0c-0.1,0.1-0.2,0.7-0.2,0.8c0,1,0,2,0,3c0,4.3,0,8.7,0,13	c0,4.3,0,8.7,0,13c0,1,0,2,0,2.9c0,0.4-0.1,1,0,1.5c0.1,0.3,1.4,0.1,1.7,0.1c0.8,0,1.6,0,2.4,0c0.6,0,1.2,0.1,1.8,0	c0.5,0,0.4-0.5,0.4-0.8c-0.1-1,0-2,0-3c0-0.8,0-1.6,0-2.3 M104.2,428.2c0-1.6,0-4,0-6.3c0-2.9,0-5.8,0-8.6c0-1.2,0-2.4,0-3.6	c0-0.7,0-1.3,0-2c0-0.2-0.1-1,0-1.1c0.1-0.1,0.4,0,0.6,0c3.6-0.2,7.2-0.3,10.8-0.2c6.5,0.1,13.1,0.7,19.5-0.8c5.7-1.3,10.9-4,15-8.3	c2.9-3.1,5.4-6.7,7.1-10.5c0.9-2,1.5-4.1,1.9-6.3c0.1-0.8,0.2-1.6,0.1-2.6"/></svg>